<?xml version="1.0" encoding="UTF-8"?><svg xmlns="http://www.w3.org/2000/svg" xmlns:xlink="http://www.w3.org/1999/xlink" version="1.1" x="0px" y="0px" viewBox="0 0 32 32" xml:space="preserve"><g id="Layer_7"><path fill="#999" d="M16 0C7.163 0 0 7.163 0 16c0 8.836 7.163 16 16 16s16-7.164 16-16c0-8.837-7.163-16-16-16z"/><path fill="#FFF" d="M21.705 22.647h2.942c0-8.434-6.861-15.3-15.294-15.3v2.934c6.81 0 12.352 5.548 12.352 12.366zm-10.315.005a2.031 2.031 0 0 0 2.039-2.029 2.039 2.039 0 0 0-4.075 0 2.03 2.03 0 0 0 2.036 2.029zm5.116-.004h2.945c0-5.57-4.531-10.101-10.099-10.101v2.933a7.1 7.1 0 0 1 5.057 2.1 7.115 7.115 0 0 1 2.097 5.068z"/></g><metadata><rdf:RDF xmlns:rdf="http://www.w3.org/1999/02/22-rdf-syntax-ns#" xmlns:rdfs="http://www.w3.org/2000/01/rdf-schema#" xmlns:dc="http://purl.org/dc/elements/1.1/"><rdf:Description about="https://iconscout.com/legal#licenses" dc:title="rss,online,social,media" dc:description="rss,online,social,media" dc:publisher="Iconscout" dc:date="2017-09-15" dc:format="image/svg+xml" dc:language="en"><dc:creator><rdf:Bag><rdf:li>Epicflaticon by Alfredo</rdf:li></rdf:Bag></dc:creator></rdf:Description></rdf:RDF></metadata></svg>